  0
SECTION
  2
HEADER
  9
$ACADVER
  1
AC1015
  9
$ACADMAINTVER
 70
     6
  9
$DWGCODEPAGE
  3
ANSI_1252
  9
$INSBASE
 10
0.0
 20
0.0
 30
0.0
  9
$EXTMIN
 10
-141.0838611853
 20
-53.1563234627
 30
0.0
  9
$EXTMAX
 10
5.1164166615
 20
104.7750005373
 30
0.0
  9
$LIMMIN
 10
0.0
 20
0.0
  9
$LIMMAX
 10
420.0
 20
297.0
  9
$ORTHOMODE
 70
     0
  9
$REGENMODE
 70
     1
  9
$FILLMODE
 70
     1
  9
$QTEXTMODE
 70
     0
  9
$MIRRTEXT
 70
     1
  9
$LTSCALE
 40
1.0
  9
$ATTMODE
 70
     1
  9
$TEXTSIZE
 40
3.5
  9
$TRACEWID
 40
1.0
  9
$TEXTSTYLE
  7
Standard
  9
$CLAYER
  8
0
  9
$CELTYPE
  6
ByLayer
  9
$CECOLOR
 62
   256
  9
$CELTSCALE
 40
1.0
  9
$DISPSILH
 70
     0
  9
$DIMSCALE
 40
1.0
  9
$DIMASZ
 40
3.302
  9
$DIMEXO
 40
0.0
  9
$DIMDLI
 40
3.75
  9
$DIMRND
 40
0.0
  9
$DIMDLE
 40
0.0
  9
$DIMEXE
 40
1.0
  9
$DIMTP
 40
0.0
  9
$DIMTM
 40
0.0
  9
$DIMTXT
 40
3.5
  9
$DIMCEN
 40
2.5
  9
$DIMTSZ
 40
0.0
  9
$DIMTOL
 70
     0
  9
$DIMLIM
 70
     0
  9
$DIMTIH
 70
     1
  9
$DIMTOH
 70
     1
  9
$DIMSE1
 70
     0
  9
$DIMSE2
 70
     0
  9
$DIMTAD
 70
     1
  9
$DIMZIN
 70
     1
  9
$DIMBLK
  1

  9
$DIMASO
 70
     1
  9
$DIMSHO
 70
     1
  9
$DIMPOST
  1

  9
$DIMAPOST
  1

  9
$DIMALT
 70
     0
  9
$DIMALTD
 70
     3
  9
$DIMALTF
 40
0.0393700787
  9
$DIMLFAC
 40
1.0
  9
$DIMTOFL
 70
     1
  9
$DIMTVP
 40
0.0
  9
$DIMTIX
 70
     0
  9
$DIMSOXD
 70
     0
  9
$DIMSAH
 70
     0
  9
$DIMBLK1
  1

  9
$DIMBLK2
  1

  9
$DIMSTYLE
  2
ISO-25
  9
$DIMCLRD
 70
     0
  9
$DIMCLRE
 70
     0
  9
$DIMCLRT
 70
     0
  9
$DIMTFAC
 40
1.0
  9
$DIMGAP
 40
1.524
  9
$DIMJUST
 70
     0
  9
$DIMSD1
 70
     0
  9
$DIMSD2
 70
     0
  9
$DIMTOLJ
 70
     0
  9
$DIMTZIN
 70
     1
  9
$DIMALTZ
 70
     0
  9
$DIMALTTZ
 70
     0
  9
$DIMUPT
 70
     0
  9
$DIMDEC
 70
     2
  9
$DIMTDEC
 70
     2
  9
$DIMALTU
 70
     2
  9
$DIMALTTD
 70
     3
  9
$DIMTXSTY
  7
Standard
  9
$DIMAUNIT
 70
     0
  9
$DIMADEC
 70
     2
  9
$DIMALTRND
 40
0.0
  9
$DIMAZIN
 70
     0
  9
$DIMDSEP
 70
    44
  9
$DIMATFIT
 70
     3
  9
$DIMFRAC
 70
     0
  9
$DIMLDRBLK
  1

  9
$DIMLUNIT
 70
     2
  9
$DIMLWD
 70
    -2
  9
$DIMLWE
 70
    -2
  9
$DIMTMOVE
 70
     0
  9
$LUNITS
 70
     2
  9
$LUPREC
 70
     2
  9
$SKETCHINC
 40
1.0
  9
$FILLETRAD
 40
0.0
  9
$AUNITS
 70
     0
  9
$AUPREC
 70
     2
  9
$MENU
  1
.
  9
$ELEVATION
 40
0.0
  9
$PELEVATION
 40
0.0
  9
$THICKNESS
 40
0.0
  9
$LIMCHECK
 70
     0
  9
$CHAMFERA
 40
0.0
  9
$CHAMFERB
 40
0.0
  9
$CHAMFERC
 40
0.0
  9
$CHAMFERD
 40
0.0
  9
$SKPOLY
 70
     0
  9
$TDCREATE
 40
2459945.649353808
  9
$TDUCREATE
 40
2459945.649353808
  9
$TDUPDATE
 40
2459945.649379907
  9
$TDUUPDATE
 40
2459945.649379907
  9
$TDINDWG
 40
0.0000000116
  9
$TDUSRTIMER
 40
0.0000000116
  9
$USRTIMER
 70
     1
  9
$ANGBASE
 50
0.0
  9
$ANGDIR
 70
     0
  9
$PDMODE
 70
     0
  9
$PDSIZE
 40
-1.0
  9
$PLINEWID
 40
0.0
  9
$SPLFRAME
 70
     0
  9
$SPLINETYPE
 70
     6
  9
$SPLINESEGS
 70
     8
  9
$HANDSEED
  5
82
  9
$SURFTAB1
 70
     6
  9
$SURFTAB2
 70
     6
  9
$SURFTYPE
 70
     6
  9
$SURFU
 70
     6
  9
$SURFV
 70
     6
  9
$UCSBASE
  2

  9
$UCSNAME
  2

  9
$UCSORG
 10
0.0
 20
0.0
 30
0.0
  9
$UCSXDIR
 10
1.0
 20
0.0
 30
0.0
  9
$UCSYDIR
 10
0.0
 20
1.0
 30
0.0
  9
$UCSORTHOREF
  2

  9
$UCSORTHOVIEW
 70
     0
  9
$UCSORGTOP
 10
0.0
 20
0.0
 30
0.0
  9
$UCSORGBOTTOM
 10
0.0
 20
0.0
 30
0.0
  9
$UCSORGLEFT
 10
0.0
 20
0.0
 30
0.0
  9
$UCSORGRIGHT
 10
0.0
 20
0.0
 30
0.0
  9
$UCSORGFRONT
 10
0.0
 20
0.0
 30
0.0
  9
$UCSORGBACK
 10
0.0
 20
0.0
 30
0.0
  9
$PUCSBASE
  2

  9
$PUCSNAME
  2

  9
$PUCSORG
 10
0.0
 20
0.0
 30
0.0
  9
$PUCSXDIR
 10
1.0
 20
0.0
 30
0.0
  9
$PUCSYDIR
 10
0.0
 20
1.0
 30
0.0
  9
$PUCSORTHOREF
  2

  9
$PUCSORTHOVIEW
 70
     0
  9
$PUCSORGTOP
 10
0.0
 20
0.0
 30
0.0
  9
$PUCSORGBOTTOM
 10
0.0
 20
0.0
 30
0.0
  9
$PUCSORGLEFT
 10
0.0
 20
0.0
 30
0.0
  9
$PUCSORGRIGHT
 10
0.0
 20
0.0
 30
0.0
  9
$PUCSORGFRONT
 10
0.0
 20
0.0
 30
0.0
  9
$PUCSORGBACK
 10
0.0
 20
0.0
 30
0.0
  9
$USERI1
 70
     0
  9
$USERI2
 70
     0
  9
$USERI3
 70
     0
  9
$USERI4
 70
     0
  9
$USERI5
 70
     0
  9
$USERR1
 40
0.0
  9
$USERR2
 40
0.0
  9
$USERR3
 40
0.0
  9
$USERR4
 40
0.0
  9
$USERR5
 40
0.0
  9
$WORLDVIEW
 70
     1
  9
$SHADEDGE
 70
     3
  9
$SHADEDIF
 70
    70
  9
$TILEMODE
 70
     1
  9
$MAXACTVP
 70
    64
  9
$PINSBASE
 10
0.0
 20
0.0
 30
0.0
  9
$PLIMCHECK
 70
     0
  9
$PEXTMIN
 10
1.0000000000E+20
 20
1.0000000000E+20
 30
1.0000000000E+20
  9
$PEXTMAX
 10
-1.0000000000E+20
 20
-1.0000000000E+20
 30
-1.0000000000E+20
  9
$PLIMMIN
 10
0.0
 20
0.0
  9
$PLIMMAX
 10
420.0
 20
297.0
  9
$UNITMODE
 70
     0
  9
$VISRETAIN
 70
     1
  9
$PLINEGEN
 70
     0
  9
$PSLTSCALE
 70
     1
  9
$TREEDEPTH
 70
  3020
  9
$CMLSTYLE
  2
Standard
  9
$CMLJUST
 70
     0
  9
$CMLSCALE
 40
20.0
  9
$PROXYGRAPHICS
 70
     1
  9
$MEASUREMENT
 70
     1
  9
$CELWEIGHT
370
    -1
  9
$ENDCAPS
280
     0
  9
$JOINSTYLE
280
     0
  9
$LWDISPLAY
290
     1
  9
$INSUNITS
 70
     4
  9
$HYPERLINKBASE
  1

  9
$STYLESHEET
  1

  9
$XEDIT
290
     1
  9
$CEPSNTYPE
380
     0
  9
$PSTYLEMODE
290
     1
  9
$FINGERPRINTGUID
  2
{1a8b6938-3115-4a66-9654-8d5789d7efb7}
  9
$VERSIONGUID
  2
{FAEB1C32-E019-11D5-929B-00C0DF256EC4}
  9
$EXTNAMES
290
     1
  9
$PSVPSCALE
 40
0.0
  9
$OLESTARTUP
290
     0
  0
ENDSEC
  0
SECTION
  2
CLASSES
  0
CLASS
  1
ACDBDICTIONARYWDFLT
  2
AcDbDictionaryWithDefault
  3
ObjectDBX Classes
 90
        0
280
     0
281
     0
  0
CLASS
  1
VISUALSTYLE
  2
AcDbVisualStyle
  3
ObjectDBX Classes
 90
     4095
280
     0
281
     0
  0
CLASS
  1
MATERIAL
  2
AcDbMaterial
  3
ObjectDBX Classes
 90
     1153
280
     0
281
     0
  0
CLASS
  1
SCALE
  2
AcDbScale
  3
ObjectDBX Classes
 90
     1153
280
     0
281
     0
  0
CLASS
  1
TABLESTYLE
  2
AcDbTableStyle
  3
ObjectDBX Classes
 90
     4095
280
     0
281
     0
  0
CLASS
  1
MLEADERSTYLE
  2
AcDbMLeaderStyle
  3
ACDB_MLEADERSTYLE_CLASS
 90
     4095
280
     0
281
     0
  0
CLASS
  1
SUN
  2
AcDbSun
  3
SCENEOE
 90
     1153
280
     0
281
     0
  0
CLASS
  1
ACDBPLACEHOLDER
  2
AcDbPlaceHolder
  3
ObjectDBX Classes
 90
        0
280
     0
281
     0
  0
CLASS
  1
LAYOUT
  2
AcDbLayout
  3
ObjectDBX Classes
 90
        0
280
     0
281
     0
  0
ENDSEC
  0
SECTION
  2
TABLES
  0
TABLE
  2
VPORT
  5
8
330
0
100
AcDbSymbolTable
 70
     1
  0
VPORT
  5
29
330
8
100
AcDbSymbolTableRecord
100
AcDbViewportTableRecord
  2
*Active
 70
     0
 10
0.0
 20
0.0
 11
1.0
 21
1.0
 12
-67.9837222619
 22
25.8093385373
 13
0.0
 23
0.0
 14
10.0
 24
10.0
 15
10.0
 25
10.0
 16
0.0
 26
0.0
 36
1.0
 17
0.0
 27
0.0
 37
0.0
 40
161.08995048
 41
0.9257205863
 42
50.0
 43
0.0
 44
0.0
 50
0.0
 51
0.0
 71
     0
 72
   100
 73
     1
 74
     3
 75
     0
 76
     0
 77
     0
 78
     0
281
     0
 65
     1
110
0.0
120
0.0
130
0.0
111
1.0
121
0.0
131
0.0
112
0.0
122
1.0
132
0.0
 79
     0
146
0.0
  0
ENDTAB
  0
TABLE
  2
LTYPE
  5
5
330
0
100
AcDbSymbolTable
 70
     6
  0
LTYPE
  5
14
330
5
100
AcDbSymbolTableRecord
100
AcDbLinetypeTableRecord
  2
ByBlock
 70
     0
  3

 72
    65
 73
     0
 40
0.0
  0
LTYPE
  5
15
330
5
100
AcDbSymbolTableRecord
100
AcDbLinetypeTableRecord
  2
ByLayer
 70
     0
  3

 72
    65
 73
     0
 40
0.0
  0
LTYPE
  5
16
330
5
100
AcDbSymbolTableRecord
100
AcDbLinetypeTableRecord
  2
Continuous
 70
     0
  3
Solid line
 72
    65
 73
     0
 40
0.0
  0
LTYPE
  5
5E
330
5
100
AcDbSymbolTableRecord
100
AcDbLinetypeTableRecord
  2
HIDDEN
 70
     0
  3
Hidden __ __ __ __ __ __ __ __ __ __ __ __ __ __
 72
    65
 73
     2
 40
1.905
 49
1.27
 74
     0
 49
-0.635
 74
     0
  0
LTYPE
  5
5F
330
5
100
AcDbSymbolTableRecord
100
AcDbLinetypeTableRecord
  2
PHANTOM
 70
     0
  3
Phantom ______  __  __  ______  __  __  ______
 72
    65
 73
     6
 40
12.7
 49
6.35
 74
     0
 49
-1.27
 74
     0
 49
1.27
 74
     0
 49
-1.27
 74
     0
 49
1.27
 74
     0
 49
-1.27
 74
     0
  0
LTYPE
  5
60
330
5
100
AcDbSymbolTableRecord
100
AcDbLinetypeTableRecord
  2
CENTER
 70
     0
  3
Center ____ _ ____ _ ____ _ ____ _ ____ _ ____
 72
    65
 73
     4
 40
10.16
 49
6.35
 74
     0
 49
-1.27
 74
     0
 49
1.27
 74
     0
 49
-1.27
 74
     0
  0
LTYPE
  5
61
330
5
100
AcDbSymbolTableRecord
100
AcDbLinetypeTableRecord
  2
CENTERX2
 70
     0
  3
Center (2x) ________  __  ________  __  _____
 72
    65
 73
     4
 40
20.32
 49
12.7
 74
     0
 49
-2.54
 74
     0
 49
2.54
 74
     0
 49
-2.54
 74
     0
  0
LTYPE
  5
62
330
5
100
AcDbSymbolTableRecord
100
AcDbLinetypeTableRecord
  2
DOT2
 70
     0
  3
Dot (.5x) ........................................
 72
    65
 73
     2
 40
0.635
 49
0.0
 74
     0
 49
-0.635
 74
     0
  0
ENDTAB
  0
TABLE
  2
LAYER
  5
2
330
0
100
AcDbSymbolTable
 70
     1
  0
LAYER
  5
10
330
2
100
AcDbSymbolTableRecord
100
AcDbLayerTableRecord
  2
0
 70
     0
 62
     7
  6
Continuous
370
    -3
390
F
  0
ENDTAB
  0
TABLE
  2
STYLE
  5
3
330
0
100
AcDbSymbolTable
 70
     1
  0
STYLE
  5
11
330
3
100
AcDbSymbolTableRecord
100
AcDbTextStyleTableRecord
  2
Standard
 70
     0
 40
0.0
 41
1.0
 50
0.0
 71
     0
 42
3.5
  3
txt
  4

  0
ENDTAB
  0
TABLE
  2
VIEW
  5
6
330
0
100
AcDbSymbolTable
 70
     0
  0
ENDTAB
  0
TABLE
  2
UCS
  5
7
330
0
100
AcDbSymbolTable
 70
     0
  0
ENDTAB
  0
TABLE
  2
APPID
  5
9
330
0
100
AcDbSymbolTable
 70
     1
  0
APPID
  5
12
330
9
100
AcDbSymbolTableRecord
100
AcDbRegAppTableRecord
  2
ACAD
 70
     0
  0
ENDTAB
  0
TABLE
  2
DIMSTYLE
  5
A
330
0
100
AcDbSymbolTable
 70
     1
100
AcDbDimStyleTable
  0
DIMSTYLE
105
27
330
A
100
AcDbSymbolTableRecord
100
AcDbDimStyleTableRecord
  2
ISO-25
 70
     0
 41
2.5
 42
0.625
 43
3.75
 44
1.25
 73
     0
 74
     0
 77
     1
 78
     8
140
2.5
141
2.5
143
0.0393700787
147
0.625
171
     3
172
     1
178
     0
271
     2
272
     2
274
     3
278
    44
283
     0
284
     8
340
11
  0
ENDTAB
  0
TABLE
  2
BLOCK_RECORD
  5
1
330
0
100
AcDbSymbolTable
 70
     1
  0
BLOCK_RECORD
  5
1F
330
1
100
AcDbSymbolTableRecord
100
AcDbBlockTableRecord
  2
*Model_Space
340
22
  0
BLOCK_RECORD
  5
1B
330
1
100
AcDbSymbolTableRecord
100
AcDbBlockTableRecord
  2
*Paper_Space
340
1E
  0
BLOCK_RECORD
  5
23
330
1
100
AcDbSymbolTableRecord
100
AcDbBlockTableRecord
  2
*Paper_Space0
340
26
  0
ENDTAB
  0
ENDSEC
  0
SECTION
  2
BLOCKS
  0
BLOCK
  5
20
330
1F
100
AcDbEntity
  8
0
100
AcDbBlockBegin
  2
*Model_Space
 70
     0
 10
0.0
 20
0.0
 30
0.0
  3
*Model_Space
  1

  0
ENDBLK
  5
21
330
1F
100
AcDbEntity
  8
0
100
AcDbBlockEnd
  0
BLOCK
  5
1C
330
1B
100
AcDbEntity
 67
     1
  8
0
100
AcDbBlockBegin
  2
*Paper_Space
 70
     0
 10
0.0
 20
0.0
 30
0.0
  3
*Paper_Space
  1

  0
ENDBLK
  5
1D
330
1B
100
AcDbEntity
 67
     1
  8
0
100
AcDbBlockEnd
  0
BLOCK
  5
24
330
23
100
AcDbEntity
  8
0
100
AcDbBlockBegin
  2
*Paper_Space0
 70
     0
 10
0.0
 20
0.0
 30
0.0
  3
*Paper_Space0
  1

  0
ENDBLK
  5
25
330
23
100
AcDbEntity
  8
0
100
AcDbBlockEnd
  0
ENDSEC
  0
SECTION
  2
ENTITIES
  0
CIRCLE
  5
63
330
1F
100
AcDbEntity
  8
0
  6
Continuous
 62
     7
370
    25
100
AcDbCircle
 10
-14.1590886229
 20
76.10943158
 30
0.0
 40
1.649999999999991
  0
CIRCLE
  5
64
330
1F
100
AcDbEntity
  8
0
  6
Continuous
 62
     7
370
    25
100
AcDbCircle
 10
-106.2822469743
 20
62.8860124069
 30
0.0
 40
1.650000000000006
  0
CIRCLE
  5
65
330
1F
100
AcDbEntity
  8
0
  6
Continuous
 62
     7
370
    25
100
AcDbCircle
 10
-80.9632899407
 20
22.6070677203
 30
0.0
 40
1.650000000000006
  0
CIRCLE
  5
66
330
1F
100
AcDbEntity
  8
0
  6
Continuous
 62
     7
370
    25
100
AcDbCircle
 10
-120.4389293638
 20
33.0322019911
 30
0.0
 40
1.650000000000006
  0
CIRCLE
  5
67
330
1F
100
AcDbEntity
  8
0
  6
Continuous
 62
     7
370
    25
100
AcDbCircle
 10
-76.8278425477
 20
82.3941162339
 30
0.0
 40
1.650000000000006
  0
CIRCLE
  5
68
330
1F
100
AcDbEntity
  8
0
  6
Continuous
 62
     7
370
    25
100
AcDbCircle
 10
-50.530382705
 20
57.2430533681
 30
0.0
 40
1.649999999999999
  0
CIRCLE
  5
69
330
1F
100
AcDbEntity
  8
0
  6
Continuous
 62
     7
370
    25
100
AcDbCircle
 10
-6.7343518241
 20
45.2816635282
 30
0.0
 40
1.649999999999999
  0
CIRCLE
  5
6A
330
1F
100
AcDbEntity
  8
0
  6
Continuous
 62
     7
370
    25
100
AcDbCircle
 10
-128.0554610177
 20
-11.3077025786
 30
0.0
 40
1.64999999999999
  0
CIRCLE
  5
6B
330
1F
100
AcDbEntity
  8
0
  6
Continuous
 62
     7
370
    25
100
AcDbCircle
 10
-43.4560425538
 20
24.1960489855
 30
0.0
 40
1.649999999999999
  0
CIRCLE
  5
6C
330
1F
100
AcDbEntity
  8
0
  6
Continuous
 62
     7
370
    25
100
AcDbCircle
 10
-106.6051930309
 20
-25.6086840069
 30
0.0
 40
1.650000000000006
  0
CIRCLE
  5
6D
330
1F
100
AcDbEntity
  8
0
  6
Continuous
 62
     7
370
    25
100
AcDbCircle
 10
-48.3609305727
 20
-1.7214323002
 30
0.0
 40
1.649999999999998
  0
ARC
  5
6E
330
1F
100
AcDbEntity
  8
0
  6
Continuous
 62
     7
370
    25
100
AcDbCircle
 10
-57.7850005658
 20
103.5050005373
 30
0.0
 40
1.270000000000017
100
AcDbArc
 50
90.0
 51
180.0
  0
LINE
  5
6F
330
1F
100
AcDbEntity
  8
0
  6
Continuous
 62
     7
370
    25
100
AcDbLine
 10
-59.0550005658
 20
97.3890997607
 30
0.0
 11
-59.0550005658
 21
103.5050005373
 31
0.0
  0
SPLINE
  5
70
330
1F
100
AcDbEntity
  8
0
  6
Continuous
 62
     7
370
    25
100
AcDbSpline
210
0.0
220
0.0
230
1.0
 70
     8
 71
     3
 72
    22
 73
    18
 74
     0
 42
0.00000001
 43
0.00000001
 40
0.0
 40
0.0
 40
0.0
 40
0.0
 40
0.1249999999999983
 40
0.1249999999999983
 40
0.2499999999999967
 40
0.2499999999999967
 40
0.3749999999999972
 40
0.3749999999999972
 40
0.4999999999999978
 40
0.4999999999999978
 40
0.6249999999999983
 40
0.6249999999999983
 40
0.7499999999999989
 40
0.7499999999999989
 40
0.8749999999999994
 40
0.8749999999999994
 40
1.0
 40
1.0
 40
1.0
 40
1.0
 10
-64.01190931189821
 20
91.69405750770092
 30
0.0
 10
-63.66322176339252
 20
91.74261571548341
 30
0.0
 10
-63.3161270034714
 20
91.79728178956212
 30
0.0
 10
-62.63727855369196
 20
91.96544233822931
 30
0.0
 10
-62.30462511795828
 20
92.07548655736034
 30
0.0
 10
-61.65682275969863
 20
92.36269955143929
 30
0.0
 10
-61.35092706974763
 20
92.53578620621246
 30
0.0
 10
-60.78234223287343
 20
92.94569829788611
 30
0.0
 10
-60.51656048405249
 20
93.18637914007996
 30
0.0
 10
-60.05584869073823
 20
93.71472842395187
 30
0.0
 10
-59.85796617796456
 20
94.00330323171906
 30
0.0
 10
-59.52558850237708
 20
94.62808144845414
 30
0.0
 10
-59.39549058622546
 20
94.95668786281372
 30
0.0
 10
-59.20093921901969
 20
95.6316237891384
 30
0.0
 10
-59.13595697705074
 20
95.98186354110221
 30
0.0
 10
-59.06183517442634
 20
96.68302308711914
 30
0.0
 10
-59.05500056575806
 20
97.03581169849537
 30
0.0
 10
-59.05500056575804
 20
97.3890997606654
 30
0.0
  0
SPLINE
  5
71
330
1F
100
AcDbEntity
  8
0
  6
Continuous
 62
     7
370
    25
100
AcDbSpline
210
0.0
220
0.0
230
1.0
 70
     8
 71
     3
 72
    55
 73
    51
 74
     0
 42
0.00000001
 43
0.00000001
 40
0.0
 40
0.0
 40
0.0
 40
0.0
 40
0.0312499999999997
 40
0.0312499999999997
 40
0.0624999999999994
 40
0.0624999999999994
 40
0.0781249999999993
 40
0.0781249999999993
 40
0.0937499999999991
 40
0.0937499999999991
 40
0.1249999999999989
 40
0.1249999999999989
 40
0.1874999999999984
 40
0.1874999999999984
 40
0.249999999999998
 40
0.249999999999998
 40
0.3124999999999976
 40
0.3124999999999976
 40
0.3749999999999971
 40
0.3749999999999971
 40
0.4374999999999966
 40
0.4374999999999966
 40
0.4999999999999961
 40
0.4999999999999961
 40
0.5624999999999957
 40
0.5624999999999957
 40
0.5781249999999956
 40
0.5781249999999956
 40
0.5937499999999956
 40
0.5937499999999956
 40
0.6249999999999956
 40
0.6249999999999956
 40
0.6874999999999957
 40
0.6874999999999957
 40
0.7031249999999959
 40
0.7031249999999959
 40
0.718749999999996
 40
0.718749999999996
 40
0.7499999999999963
 40
0.7499999999999963
 40
0.8124999999999973
 40
0.8124999999999973
 40
0.8437499999999977
 40
0.8437499999999977
 40
0.8593749999999979
 40
0.8593749999999979
 40
0.8749999999999981
 40
0.8749999999999981
 40
0.937499999999999
 40
1.0
 40
1.0
 40
1.0
 40
1.0
 10
-138.7568120522706
 20
-42.17500526414221
 30
0.0
 10
-139.4162162963507
 20
-40.48452837192507
 30
0.0
 10
-139.8779215750967
 20
-38.76378626996414
 30
0.0
 10
-140.561504878714
 20
-35.28558754844969
 30
0.0
 10
-140.7809122984159
 20
-33.52775271050982
 30
0.0
 10
-140.9826857228902
 20
-30.87150666239088
 30
0.0
 10
-141.0286177203221
 20
-29.98282660127046
 30
0.0
 10
-141.0829775882547
 20
-28.19972507180519
 30
0.0
 10
-141.0913662649016
 20
-27.30381480374223
 30
0.0
 10
-141.0688510261591
 20
-24.61966515663253
 30
0.0
 10
-140.9904025754446
 20
-22.8411477948918
 30
0.0
 10
-140.6141389245347
 20
-17.52984332031754
 30
0.0
 10
-140.1780790623805
 20
-14.02084376926043
 30
0.0
 10
-139.076491614265
 20
-7.042328851044591
 30
0.0
 10
-138.4088507410673
 20
-3.573177114206035
 30
0.0
 10
-136.9135685582513
 20
3.337595312617816
 30
0.0
 10
-136.085220551788
 20
6.779094402285059
 30
0.0
 10
-134.3130353814722
 20
13.64222052705358
 30
0.0
 10
-133.3682932251239
 20
17.06569079306038
 30
0.0
 10
-131.4016627838555
 20
23.87992911041484
 30
0.0
 10
-130.38293078479
 20
27.27433563189901
 30
0.0
 10
-128.2156914724602
 20
34.01656661520251
 30
0.0
 10
-127.067152292447
 20
37.36437963864618
 30
0.0
 10
-124.5627081401037
 20
43.98557299569729
 30
0.0
 10
-123.2073599987364
 20
47.25915320039191
 30
0.0
 10
-121.3195913715585
 20
51.28164285419837
 30
0.0
 10
-120.9323293110629
 20
52.08265603714148
 30
0.0
 10
-120.136293163773
 20
53.67696079203605
 30
0.0
 10
-119.727175977943
 20
54.47081866788921
 30
0.0
 10
-118.4703531185776
 20
56.82831508586941
 30
0.0
 10
-117.5915906789404
 20
58.37115023765678
 30
0.0
 10
-114.8149627845413
 20
62.90068691939202
 30
0.0
 10
-112.7767278503843
 20
65.78839929255375
 30
0.0
 10
-109.9240345432462
 20
69.18302323017912
 30
0.0
 10
-109.3382180207236
 20
69.85117400476487
 30
0.0
 10
-108.1340861517009
 20
71.16455724437266
 30
0.0
 10
-107.5146271578941
 20
71.81087678501525
 30
0.0
 10
-105.6119674704447
 20
73.7058911477068
 30
0.0
 10
-104.2961613619765
 20
74.89923456111843
 30
0.0
 10
-100.2052346920933
 20
78.26718346761135
 30
0.0
 10
-97.28178211756362
 20
80.22257905138555
 30
0.0
 10
-92.66245903714122
 20
82.8096464286633
 30
0.0
 10
-91.0840539769177
 20
83.6149125067127
 30
0.0
 10
-88.66197187889146
 20
84.74230741138018
 30
0.0
 10
-87.84488299330462
 20
85.104905009886
 30
0.0
 10
-86.20539592529764
 20
85.79937859517597
 30
0.0
 10
-85.38153828299231
 20
86.13196856928522
 30
0.0
 10
-81.24318278217983
 20
87.72703614173525
 30
0.0
 10
-74.49928045717326
 20
89.84290725205635
 30
0.0
 10
-67.54290171990968
 20
91.20233170974353
 30
0.0
 10
-64.01190931189817
 20
91.69405750770092
 30
0.0
  0
ARC
  5
72
330
1F
100
AcDbEntity
  8
0
  6
Continuous
 62
     7
370
    25
100
AcDbCircle
 10
-122.6861515658
 20
-35.9063234627
 30
0.0
 40
17.24999999999998
100
AcDbArc
 50
201.3092624745
 51
330.4445313562
  0
SPLINE
  5
73
330
1F
100
AcDbEntity
  8
0
  6
Continuous
 62
     7
370
    25
100
AcDbSpline
210
0.0
220
0.0
230
1.0
 70
     8
 71
     3
 72
    42
 73
    38
 74
     0
 42
0.00000001
 43
0.00000001
 40
0.0
 40
0.0
 40
0.0
 40
0.0
 40
0.1250000000000021
 40
0.1250000000000021
 40
0.2500000000000042
 40
0.2500000000000042
 40
0.2812500000000046
 40
0.2812500000000046
 40
0.312500000000005
 40
0.312500000000005
 40
0.3750000000000052
 40
0.3750000000000052
 40
0.4062500000000054
 40
0.4062500000000054
 40
0.4375000000000055
 40
0.4375000000000055
 40
0.5000000000000053
 40
0.5000000000000053
 40
0.5625000000000051
 40
0.5625000000000051
 40
0.5937500000000049
 40
0.5937500000000049
 40
0.6250000000000047
 40
0.6250000000000047
 40
0.6875000000000038
 40
0.6875000000000038
 40
0.7500000000000029
 40
0.7500000000000029
 40
0.7812500000000026
 40
0.7812500000000026
 40
0.8125000000000022
 40
0.8125000000000022
 40
0.8750000000000014
 40
0.8750000000000014
 40
0.9375000000000008
 40
0.9375000000000008
 40
1.0
 40
1.0
 40
1.0
 40
1.0
 10
-44.88638583116152
 20
-6.435744076298539
 30
0.0
 10
-48.26932100135417
 20
-6.021941826191131
 30
0.0
 10
-51.65422383169462
 20
-5.654444507846177
 30
0.0
 10
-58.43800588158506
 20
-5.248356135457123
 30
0.0
 10
-61.83674633506211
 20
-5.206499500440437
 30
0.0
 10
-66.10089331455029
 20
-5.524150594548805
 30
0.0
 10
-66.95472766286773
 20
-5.606468403782985
 30
0.0
 10
-68.6488787373088
 20
-5.81149278551214
 30
0.0
 10
-69.49097340781012
 20
-5.934363931222904
 30
0.0
 10
-72.00084919251405
 20
-6.370044882375784
 30
0.0
 10
-73.65220453726609
 20
-6.749993906232857
 30
0.0
 10
-76.09083579153794
 20
-7.476882042774197
 30
0.0
 10
-76.89729807050146
 20
-7.745398171832155
 30
0.0
 10
-78.4963326770033
 20
-8.33920466419783
 30
0.0
 10
-79.29116369470367
 20
-8.666115009969374
 30
0.0
 10
-81.63701339649039
 20
-9.72935369164843
 30
0.0
 10
-83.13358464417543
 20
-10.53780661981842
 30
0.0
 10
-86.00727257096638
 20
-12.33147131700111
 30
0.0
 10
-87.38456144570868
 20
-13.31642828536902
 30
0.0
 10
-89.36263395863139
 20
-14.92387277152403
 30
0.0
 10
-90.00725119052395
 20
-15.48149901772744
 30
0.0
 10
-91.26600694842838
 20
-16.64185134001888
 30
0.0
 10
-91.88034379273587
 20
-17.24534571650328
 30
0.0
 10
-93.64937208475123
 20
-19.09937195290663
 30
0.0
 10
-94.73696182093175
 20
-20.40338045034709
 30
0.0
 10
-96.73728486922246
 20
-23.1409565749768
 30
0.0
 10
-97.65049284269537
 20
-24.57417250383182
 30
0.0
 10
-98.928300878854
 20
-26.79216631650311
 30
0.0
 10
-99.33918950335938
 20
-27.54371885694658
 30
0.0
 10
-100.1349501917493
 20
-29.0589551085562
 30
0.0
 10
-100.5200602141446
 20
-29.82289444371116
 30
0.0
 10
-101.6503760330475
 20
-32.12709430631453
 30
0.0
 10
-102.3705912781413
 20
-33.67972496113644
 30
0.0
 10
-103.8135465047046
 20
-36.7837365460329
 30
0.0
 10
-104.5366314297261
 20
-38.33494673174867
 30
0.0
 10
-106.0474430533164
 20
-41.40536993116153
 30
0.0
 10
-106.8354369284817
 20
-42.92445069453415
 30
0.0
 10
-107.6807462721366
 20
-44.4151607495558
 30
0.0
  0
SPLINE
  5
74
330
1F
100
AcDbEntity
  8
0
  6
Continuous
 62
     7
370
    25
100
AcDbSpline
210
0.0
220
0.0
230
1.0
 70
     8
 71
     3
 72
    32
 73
    28
 74
     0
 42
0.00000001
 43
0.00000001
 40
0.0
 40
0.0
 40
0.0
 40
0.0
 40
0.1250000000000041
 40
0.1250000000000041
 40
0.2500000000000082
 40
0.2500000000000082
 40
0.3750000000000123
 40
0.3750000000000123
 40
0.4375000000000148
 40
0.4375000000000148
 40
0.4687500000000161
 40
0.4687500000000161
 40
0.5000000000000173
 40
0.5000000000000173
 40
0.5156250000000168
 40
0.5156250000000168
 40
0.5312500000000161
 40
0.5312500000000161
 40
0.5625000000000151
 40
0.5625000000000151
 40
0.625000000000013
 40
0.625000000000013
 40
0.7500000000000087
 40
0.7500000000000087
 40
0.8750000000000043
 40
0.8750000000000043
 40
1.0
 40
1.0
 40
1.0
 40
1.0
 10
-42.36605646212514
 20
-4.089068156700606
 30
0.0
 10
-42.3564429749082
 20
-4.279701093439267
 30
0.0
 10
-42.34780898891276
 20
-4.470277754612278
 30
0.0
 10
-42.33578421646553
 20
-4.851129837905581
 30
0.0
 10
-42.33233940081558
 20
-5.041408364180935
 30
0.0
 10
-42.34805967670844
 20
-5.420666403225055
 30
0.0
 10
-42.36598032939357
 20
-5.60971741309773
 30
0.0
 10
-42.42017978506153
 20
-5.891724391604236
 30
0.0
 10
-42.44232870953671
 20
-5.985492168215321
 30
0.0
 10
-42.48766557538146
 20
-6.125447873928557
 30
0.0
 10
-42.50475606359445
 20
-6.17183391945673
 30
0.0
 10
-42.54479244158976
 20
-6.261760768586155
 30
0.0
 10
-42.56622803495509
 20
-6.30741253365894
 30
0.0
 10
-42.61412299270026
 20
-6.363185567645685
 30
0.0
 10
-42.63560647270484
 20
-6.376009126509095
 30
0.0
 10
-42.67891991420252
 20
-6.398780959564593
 30
0.0
 10
-42.7011826270756
 20
-6.408689511064032
 30
0.0
 10
-42.7691001471784
 20
-6.435661815079431
 30
0.0
 10
-42.81602372936933
 20
-6.450172251494765
 30
0.0
 10
-42.95740155248101
 20
-6.487557869384429
 30
0.0
 10
-43.05273946260308
 20
-6.503926832432168
 30
0.0
 10
-43.34035516213817
 20
-6.540414804982887
 30
0.0
 10
-43.53529345251005
 20
-6.545849096544468
 30
0.0
 10
-43.92305402068668
 20
-6.536332598724306
 30
0.0
 10
-44.1160397755487
 20
-6.520256092144216
 30
0.0
 10
-44.50150008343418
 20
-6.481634968206017
 30
0.0
 10
-44.69398947433142
 20
-6.459278090804726
 30
0.0
 10
-44.88638583116152
 20
-6.435744076298539
 30
0.0
  0
ARC
  5
75
330
1F
100
AcDbEntity
  8
0
  6
Continuous
 62
     7
370
    25
100
AcDbCircle
 10
38.7190954339
 20
0.0
 30
0.0
 40
81.18819086786488
100
AcDbArc
 50
166.4326473495
 51
182.8869409358
  0
ARC
  5
76
330
1F
100
AcDbEntity
  8
0
  6
Continuous
 62
     7
370
    25
100
AcDbCircle
 10
-12.3158830172
 20
12.3158830172
 30
0.0
 40
28.68819086784333
100
AcDbArc
 50
137.959707818
 51
166.4326473495
  0
SPLINE
  5
77
330
1F
100
AcDbEntity
  8
0
  6
Continuous
 62
     7
370
    25
100
AcDbSpline
210
0.0
220
0.0
230
1.0
 70
     8
 71
     3
 72
    20
 73
    16
 74
     0
 42
0.00000001
 43
0.00000001
 40
0.0
 40
0.0
 40
0.0
 40
0.0
 40
0.124999999999997
 40
0.124999999999997
 40
0.249999999999994
 40
0.249999999999994
 40
0.374999999999991
 40
0.374999999999991
 40
0.499999999999988
 40
0.499999999999988
 40
0.749999999999994
 40
0.749999999999994
 40
0.874999999999997
 40
0.874999999999997
 40
1.0
 40
1.0
 40
1.0
 40
1.0
 10
-32.09803465971712
 20
33.09276371818942
 30
0.0
 10
-32.10044092687268
 20
32.99040137894534
 30
0.0
 10
-32.10268030977964
 20
32.8880134891339
 30
0.0
 10
-32.13164049299088
 20
32.6869859009048
 30
0.0
 10
-32.15533559236422
 20
32.58788295699754
 30
0.0
 10
-32.22446606722717
 20
32.39300558217368
 30
0.0
 10
-32.26874516257443
 20
32.30087610339096
 30
0.0
 10
-32.37562920943809
 20
32.126936726579
 30
0.0
 10
-32.43920497496477
 20
32.04422590653817
 30
0.0
 10
-32.65217422963661
 20
31.82368446583286
 30
0.0
 10
-32.82818501235598
 20
31.70875539346922
 30
0.0
 10
-33.11354599692818
 20
31.59794414133123
 30
0.0
 10
-33.21362944231974
 20
31.57089134791274
 30
0.0
 10
-33.41633345601213
 20
31.53644568585707
 30
0.0
 10
-33.51910958949935
 20
31.53184992998539
 30
0.0
 10
-33.621859012541
 20
31.52701734489229
 30
0.0
  0
ARC
  5
78
330
1F
100
AcDbEntity
  8
0
  6
Continuous
 62
     7
370
    25
100
AcDbCircle
 10
-12.3158830172
 20
12.3158830172
 30
0.0
 40
28.68819086784337
100
AcDbArc
 50
103.5673526505
 51
133.5950761047
  0
ARC
  5
79
330
1F
100
AcDbEntity
  8
0
  6
Continuous
 62
     7
370
    25
100
AcDbCircle
 10
0.0
 20
-38.7190954339
 30
0.0
 40
81.18819086780971
100
AcDbArc
 50
89.5750315691
 51
103.5673526505
  0
SPLINE
  5
7A
330
1F
100
AcDbEntity
  8
0
  6
Continuous
 62
     7
370
    25
100
AcDbSpline
210
0.0
220
0.0
230
1.0
 70
     8
 71
     3
 72
    30
 73
    26
 74
     0
 42
0.00000001
 43
0.00000001
 40
0.0
 40
0.0
 40
0.0
 40
0.0
 40
0.1250000000000042
 40
0.1250000000000042
 40
0.2500000000000084
 40
0.2500000000000084
 40
0.3750000000000127
 40
0.3750000000000127
 40
0.4375000000000172
 40
0.4375000000000172
 40
0.4687500000000172
 40
0.4687500000000172
 40
0.5000000000000171
 40
0.5000000000000171
 40
0.531250000000017
 40
0.531250000000017
 40
0.562500000000017
 40
0.562500000000017
 40
0.6250000000000149
 40
0.6250000000000149
 40
0.7500000000000099
 40
0.7500000000000099
 40
0.8750000000000049
 40
0.8750000000000049
 40
1.0
 40
1.0
 40
1.0
 40
1.0
 10
2.863927431112864
 20
44.86316829447386
 30
0.0
 10
2.87847407710066
 20
44.68644201120134
 30
0.0
 10
2.892197794443813
 20
44.50970535512049
 30
0.0
 10
2.914519843180771
 20
44.15616743875951
 30
0.0
 10
2.921804856722487
 20
43.97934962443856
 30
0.0
 10
2.912939251518088
 20
43.62541859555311
 30
0.0
 10
2.897348378427645
 20
43.44726086082486
 30
0.0
 10
2.847641770864055
 20
43.18354321974472
 30
0.0
 10
2.827101732731589
 20
43.09602872251293
 30
0.0
 10
2.785632928421942
 20
42.96872472299228
 30
0.0
 10
2.770135222106958
 20
42.92694129033463
 30
0.0
 10
2.734285641212885
 20
42.84526196525903
 30
0.0
 10
2.713542009092801
 20
42.8040625218223
 30
0.0
 10
2.65262670460356
 20
42.73867524745407
 30
0.0
 10
2.612754645120047
 20
42.7152797533105
 30
0.0
 10
2.53328814751629
 20
42.67458853813357
 30
0.0
 10
2.492176678809604
 20
42.65678748596283
 30
0.0
 10
2.36643496417975
 20
42.60886715481567
 30
0.0
 10
2.281018525940105
 20
42.58475077557447
 30
0.0
 10
2.022407108846036
 20
42.52404467595761
 30
0.0
 10
1.846354816230324
 20
42.50071005488381
 30
0.0
 10
1.491247556073908
 20
42.47228154176147
 30
0.0
 10
1.313487178964706
 20
42.46847524564644
 30
0.0
 10
0.9578837463177138
 20
42.46502481144184
 30
0.0
 10
0.7800375716048079
 20
42.4655376973787
 30
0.0
 10
0.6021752741446115
 20
42.4668622269717
 30
0.0
  0
SPLINE
  5
7B
330
1F
100
AcDbEntity
  8
0
  6
Continuous
 62
     7
370
    25
100
AcDbSpline
210
0.0
220
0.0
230
1.0
 70
     8
 71
     3
 72
    14
 73
    10
 74
     0
 42
0.00000001
 43
0.00000001
 40
0.0
 40
0.0
 40
0.0
 40
0.0
 40
0.125
 40
0.125
 40
0.25
 40
0.25
 40
0.5
 40
0.5
 40
1.0
 40
1.0
 40
1.0
 40
1.0
 10
4.055209735419924
 20
52.07403083330271
 30
0.0
 10
3.961214315634152
 20
51.78160458948535
 30
0.0
 10
3.869085597742506
 20
51.4886085613046
 30
0.0
 10
3.688504968636292
 20
50.90149421168433
 30
0.0
 10
3.599763627144523
 20
50.60746423474527
 30
0.0
 10
3.351414053909497
 20
49.71991838038017
 30
0.0
 10
3.208702298311188
 20
49.12286724080757
 30
0.0
 10
2.877312679145443
 20
47.30927751621134
 30
0.0
 10
2.782777044929865
 20
46.09163932559608
 30
0.0
 10
2.863927431112864
 20
44.86316829447386
 30
0.0
  0
SPLINE
  5
7C
330
1F
100
AcDbEntity
  8
0
  6
Continuous
 62
     7
370
    25
100
AcDbSpline
210
0.0
220
0.0
230
1.0
 70
     8
 71
     3
 72
    40
 73
    36
 74
     0
 42
0.00000001
 43
0.00000001
 40
0.0
 40
0.0
 40
0.0
 40
0.0
 40
0.1250000000000006
 40
0.1250000000000006
 40
0.2500000000000012
 40
0.2500000000000012
 40
0.3750000000000018
 40
0.3750000000000018
 40
0.4375000000000019
 40
0.4375000000000019
 40
0.4687500000000022
 40
0.4687500000000022
 40
0.5000000000000024
 40
0.5000000000000024
 40
0.5625000000000026
 40
0.5625000000000026
 40
0.6250000000000026
 40
0.6250000000000026
 40
0.6562500000000027
 40
0.6562500000000027
 40
0.6875000000000027
 40
0.6875000000000027
 40
0.7500000000000028
 40
0.7500000000000028
 40
0.7812500000000024
 40
0.7812500000000024
 40
0.8125000000000022
 40
0.8125000000000022
 40
0.8750000000000016
 40
0.8750000000000016
 40
0.9062500000000013
 40
0.9062500000000013
 40
0.937500000000001
 40
0.937500000000001
 40
1.0
 40
1.0
 40
1.0
 40
1.0
 10
-33.03198280744502
 20
90.36994422779478
 30
0.0
 10
-30.59682491873363
 20
89.79696076289041
 30
0.0
 10
-28.20429121536161
 20
89.12306397014046
 30
0.0
 10
-23.50151872070343
 20
87.58043608159834
 30
0.0
 10
-21.19143995405253
 20
86.71132612534575
 30
0.0
 10
-16.66398841132967
 20
84.7536235424727
 30
0.0
 10
-14.44625078598974
 20
83.66589470136502
 30
0.0
 10
-11.2075828207961
 20
81.82610593128767
 30
0.0
 10
-10.14274605817053
 20
81.17799504440363
 30
0.0
 10
-8.571864257040815
 20
80.1433894728802
 30
0.0
 10
-8.051500749388714
 20
79.78728531618891
 30
0.0
 10
-7.028859101677668
 20
79.05793908282656
 30
0.0
 10
-6.526064251624247
 20
78.68440527792174
 30
0.0
 10
-5.044952404803042
 20
77.53546048250821
 30
0.0
 10
-4.09376500202707
 20
76.73185483886367
 30
0.0
 10
-2.277246664008139
 20
75.03541651329705
 30
0.0
 10
-1.411725605721815
 20
74.1427814183076
 30
0.0
 10
-0.1924254347536784
 20
72.72174669077728
 30
0.0
 10
0.2007905436423532
 20
72.2343321444825
 30
0.0
 10
0.9572218557251325
 20
71.22832463574396
 30
0.0
 10
1.321829705982554
 20
70.70733268518487
 30
0.0
 10
2.349479600690145
 20
69.1146689374181
 30
0.0
 10
2.948961811366807
 20
68.01155536203296
 30
0.0
 10
3.699791272931966
 20
66.2852378310477
 30
0.0
 10
3.925354620807492
 20
65.6978667149004
 30
0.0
 10
4.322835921147774
 20
64.49722354036842
 30
0.0
 10
4.49463261952968
 20
63.88281575586739
 30
0.0
 10
4.915333046049409
 20
62.03993995929935
 30
0.0
 10
5.074444576349374
 20
60.79892451034274
 30
0.0
 10
5.137402704047606
 20
58.91940178347055
 30
0.0
 10
5.12915407649201
 20
58.28989942383031
 30
0.0
 10
5.05509973447462
 20
57.02499858726291
 30
0.0
 10
4.989269031000257
 20
56.39266284484889
 30
0.0
 10
4.714583719976116
 20
54.51747806625279
 30
0.0
 10
4.42825333205249
 20
53.28735324965141
 30
0.0
 10
4.055209735419925
 20
52.07403083330271
 30
0.0
  0
SPLINE
  5
7D
330
1F
100
AcDbEntity
  8
0
  6
Continuous
 62
     7
370
    25
100
AcDbSpline
210
0.0
220
0.0
230
1.0
 70
     8
 71
     3
 72
    22
 73
    18
 74
     0
 42
0.00000001
 43
0.00000001
 40
0.0
 40
0.0
 40
0.0
 40
0.0
 40
0.125
 40
0.125
 40
0.25
 40
0.25
 40
0.375
 40
0.375
 40
0.5
 40
0.5
 40
0.625
 40
0.625
 40
0.75
 40
0.75
 40
0.875
 40
0.875
 40
1.0
 40
1.0
 40
1.0
 40
1.0
 10
-37.46500056575802
 20
95.96709151682344
 30
0.0
 10
-37.46500056575804
 20
95.63885517576928
 30
0.0
 10
-37.45894942030159
 20
95.31140387412715
 30
0.0
 10
-37.39481077271258
 20
94.66325215646225
 30
0.0
 10
-37.33946993714866
 20
94.34219540435026
 30
0.0
 10
-37.16926692362029
 20
93.70780384301648
 30
0.0
 10
-37.05416736064381
 20
93.39598657515174
 30
0.0
 10
-36.76609981521926
 20
92.80949710859625
 30
0.0
 10
-36.59088750324501
 20
92.52952314913553
 30
0.0
 10
-36.18133363849909
 20
92.01183601253861
 30
0.0
 10
-35.95178830744112
 20
91.77932623158014
 30
0.0
 10
-35.44682914723105
 20
91.36307410472315
 30
0.0
 10
-35.16873206484522
 20
91.17849442723967
 30
0.0
 10
-34.59291293530701
 20
90.86766140216206
 30
0.0
 10
-34.29301873287715
 20
90.7393707326438
 30
0.0
 10
-33.67379957519549
 20
90.52676865820737
 30
0.0
 10
-33.35298787763723
 20
90.44547520011052
 30
0.0
 10
-33.03198280744502
 20
90.36994422779478
 30
0.0
  0
LINE
  5
7E
330
1F
100
AcDbEntity
  8
0
  6
Continuous
 62
     7
370
    25
100
AcDbLine
 10
-37.4650005658
 20
103.5050005373
 30
0.0
 11
-37.4650005658
 21
95.9670915168
 31
0.0
  0
ARC
  5
7F
330
1F
100
AcDbEntity
  8
0
  6
Continuous
 62
     7
370
    25
100
AcDbCircle
 10
-38.7350005658
 20
103.5050005373
 30
0.0
 40
1.269999999999996
100
AcDbArc
 50
0.0
 51
90.0
  0
LINE
  5
80
330
1F
100
AcDbEntity
  8
0
  6
Continuous
 62
     7
370
    25
100
AcDbLine
 10
-57.7850005658
 20
104.7750005373
 30
0.0
 11
-38.7350005658
 21
104.7750005373
 31
0.0
  0
ENDSEC
  0
SECTION
  2
OBJECTS
  0
DICTIONARY
  5
C
330
0
100
AcDbDictionary
281
     1
  3
ACAD_GROUP
350
D
  3
ACAD_LAYOUT
350
1A
  3
ACAD_MLINESTYLE
350
17
  3
ACAD_PLOTSETTINGS
350
19
  3
ACAD_PLOTSTYLENAME
350
E
  3
ACAD_SCALELIST
350
47
  3
DWGPROPS
350
81
  0
DICTIONARY
  5
D
102
{ACAD_REACTORS
330
C
102
}
330
C
100
AcDbDictionary
281
     1
  0
DICTIONARY
  5
1A
102
{ACAD_REACTORS
330
C
102
}
330
C
100
AcDbDictionary
281
     1
  3
Layout1
350
1E
  3
Layout2
350
26
  3
Model
350
22
  0
DICTIONARY
  5
17
102
{ACAD_REACTORS
330
C
102
}
330
C
100
AcDbDictionary
281
     1
  3
Standard
350
18
  0
DICTIONARY
  5
19
102
{ACAD_REACTORS
330
C
102
}
330
C
100
AcDbDictionary
281
     1
  0
ACDBDICTIONARYWDFLT
  5
E
102
{ACAD_REACTORS
330
C
102
}
330
C
100
AcDbDictionary
281
     1
  3
Normal
350
F
100
AcDbDictionaryWithDefault
340
F
  0
DICTIONARY
  5
47
102
{ACAD_REACTORS
330
C
102
}
330
C
100
AcDbDictionary
281
     1
  3
A0
350
48
  3
A1
350
49
  3
A2
350
4A
  3
A3
350
4B
  3
A4
350
4C
  3
A5
350
4D
  3
A6
350
4E
  3
A7
350
4F
  3
A8
350
50
  3
A9
350
51
  3
B0
350
52
  3
B1
350
53
  3
B2
350
54
  3
B3
350
55
  3
B4
350
56
  3
B5
350
57
  3
B6
350
58
  0
XRECORD
  5
81
102
{ACAD_REACTORS
330
C
102
}
330
C
100
AcDbXrecord
280
     1
  1
DWGPROPS COOKIE
  2

  3

  4

  6

  7

  8
Maheemal
  9

300
=
301
=
302
=
303
=
304
=
305
=
306
=
307
=
308
=
309
=
 40
0.0
 41
2459945.649353808
 42
2459945.649379907
  1

 90
        0
  0
LAYOUT
  5
1E
102
{ACAD_REACTORS
330
1A
102
}
330
1A
100
AcDbPlotSettings
  1

  2
none_device
  4

  6

 40
0.0
 41
0.0
 42
0.0
 43
0.0
 44
0.0
 45
0.0
 46
0.0
 47
0.0
 48
0.0
 49
0.0
140
0.0
141
0.0
142
1.0
143
1.0
 70
   688
 72
     1
 73
     0
 74
     5
  7

 75
    16
147
1.0
148
0.0
149
0.0
100
AcDbLayout
  1
Layout1
 70
     1
 71
     1
 10
0.0
 20
0.0
 11
420.0
 21
297.0
 12
0.0
 22
0.0
 32
0.0
 14
1.0000000000E+20
 24
1.0000000000E+20
 34
1.0000000000E+20
 15
-1.0000000000E+20
 25
-1.0000000000E+20
 35
-1.0000000000E+20
146
0.0
 13
0.0
 23
0.0
 33
0.0
 16
1.0
 26
0.0
 36
0.0
 17
0.0
 27
1.0
 37
0.0
 76
     0
330
1B
  0
LAYOUT
  5
26
102
{ACAD_REACTORS
330
1A
102
}
330
1A
100
AcDbPlotSettings
  1

  2
none_device
  4

  6

 40
0.0
 41
0.0
 42
0.0
 43
0.0
 44
0.0
 45
0.0
 46
0.0
 47
0.0
 48
0.0
 49
0.0
140
0.0
141
0.0
142
1.0
143
1.0
 70
   688
 72
     1
 73
     0
 74
     5
  7

 75
    16
147
1.0
148
0.0
149
0.0
100
AcDbLayout
  1
Layout2
 70
     1
 71
     2
 10
0.0
 20
0.0
 11
0.0
 21
0.0
 12
0.0
 22
0.0
 32
0.0
 14
0.0
 24
0.0
 34
0.0
 15
0.0
 25
0.0
 35
0.0
146
0.0
 13
0.0
 23
0.0
 33
0.0
 16
1.0
 26
0.0
 36
0.0
 17
0.0
 27
1.0
 37
0.0
 76
     0
330
23
  0
LAYOUT
  5
22
102
{ACAD_REACTORS
330
1A
102
}
330
1A
100
AcDbPlotSettings
  1

  2
none_device
  4
ANSI_A_(11.00_x_8.50_Inches)
  6

 40
6.35
 41
19.05
 42
6.35000508
 43
19.05000254
 44
279.4
 45
215.9
 46
225.3577664823
 47
53.9701717104
 48
0.0
 49
0.0
140
0.0
141
0.0
142
0.0532826534
143
1.0
 70
  1696
 72
     0
 73
     0
 74
     0
  7

 75
     0
147
0.0179189148
148
-1300.4909072572
149
0.0
100
AcDbLayout
  1
Model
 70
     1
 71
     0
 10
0.0
 20
0.0
 11
420.0
 21
297.0
 12
0.0
 22
0.0
 32
0.0
 14
-141.0838611853
 24
-53.1563234627
 34
0.0
 15
5.1164166615
 25
104.7750005373
 35
0.0
146
0.0
 13
0.0
 23
0.0
 33
0.0
 16
1.0
 26
0.0
 36
0.0
 17
0.0
 27
1.0
 37
0.0
 76
     0
330
1F
331
29
  0
MLINESTYLE
  5
18
102
{ACAD_REACTORS
330
17
102
}
330
17
100
AcDbMlineStyle
  2
Standard
 70
     0
  3

 62
   256
 51
90.0
 52
90.0
 71
     2
 49
0.5
 62
   256
  6
BYLAYER
 49
-0.5
 62
   256
  6
BYLAYER
  0
ACDBPLACEHOLDER
  5
F
102
{ACAD_REACTORS
330
E
102
}
330
E
  0
SCALE
  5
48
102
{ACAD_REACTORS
330
47
102
}
330
47
100
AcDbScale
 70
     0
300
1:1
140
1.0
141
1.0
290
     1
  0
SCALE
  5
49
102
{ACAD_REACTORS
330
47
102
}
330
47
100
AcDbScale
 70
     0
300
1:2
140
1.0
141
2.0
290
     0
  0
SCALE
  5
4A
102
{ACAD_REACTORS
330
47
102
}
330
47
100
AcDbScale
 70
     0
300
1:4
140
1.0
141
4.0
290
     0
  0
SCALE
  5
4B
102
{ACAD_REACTORS
330
47
102
}
330
47
100
AcDbScale
 70
     0
300
1:5
140
1.0
141
5.0
290
     0
  0
SCALE
  5
4C
102
{ACAD_REACTORS
330
47
102
}
330
47
100
AcDbScale
 70
     0
300
1:8
140
1.0
141
8.0
290
     0
  0
SCALE
  5
4D
102
{ACAD_REACTORS
330
47
102
}
330
47
100
AcDbScale
 70
     0
300
1:10
140
1.0
141
10.0
290
     0
  0
SCALE
  5
4E
102
{ACAD_REACTORS
330
47
102
}
330
47
100
AcDbScale
 70
     0
300
1:16
140
1.0
141
16.0
290
     0
  0
SCALE
  5
4F
102
{ACAD_REACTORS
330
47
102
}
330
47
100
AcDbScale
 70
     0
300
1:20
140
1.0
141
20.0
290
     0
  0
SCALE
  5
50
102
{ACAD_REACTORS
330
47
102
}
330
47
100
AcDbScale
 70
     0
300
1:30
140
1.0
141
30.0
290
     0
  0
SCALE
  5
51
102
{ACAD_REACTORS
330
47
102
}
330
47
100
AcDbScale
 70
     0
300
1:40
140
1.0
141
40.0
290
     0
  0
SCALE
  5
52
102
{ACAD_REACTORS
330
47
102
}
330
47
100
AcDbScale
 70
     0
300
1:50
140
1.0
141
50.0
290
     0
  0
SCALE
  5
53
102
{ACAD_REACTORS
330
47
102
}
330
47
100
AcDbScale
 70
     0
300
1:100
140
1.0
141
100.0
290
     0
  0
SCALE
  5
54
102
{ACAD_REACTORS
330
47
102
}
330
47
100
AcDbScale
 70
     0
300
2:1
140
2.0
141
1.0
290
     0
  0
SCALE
  5
55
102
{ACAD_REACTORS
330
47
102
}
330
47
100
AcDbScale
 70
     0
300
4:1
140
4.0
141
1.0
290
     0
  0
SCALE
  5
56
102
{ACAD_REACTORS
330
47
102
}
330
47
100
AcDbScale
 70
     0
300
8:1
140
8.0
141
1.0
290
     0
  0
SCALE
  5
57
102
{ACAD_REACTORS
330
47
102
}
330
47
100
AcDbScale
 70
     0
300
10:1
140
10.0
141
1.0
290
     0
  0
SCALE
  5
58
102
{ACAD_REACTORS
330
47
102
}
330
47
100
AcDbScale
 70
     0
300
100:1
140
100.0
141
1.0
290
     0
  0
ENDSEC
  0
EOF
